<svg width="900" height="600" viewBox="0 0 900 600" fill="none" xmlns="http://www.w3.org/2000/svg"><path fill="transparent" d="M0 0h900v600H0z"/><path d="M666.558 501.617H189.477c-13.925 0-25.218-11.292-25.218-25.217V177.477c0-13.925 11.293-25.218 25.218-25.218h477.081c13.925 0 25.218 11.293 25.218 25.218V476.4c0 13.925-11.293 25.217-25.218 25.217z" fill="#fff" stroke="#E1E4E5" stroke-width="4.518"/><path d="M691.776 185.208H164.259v-7.731c0-13.925 11.293-25.218 25.218-25.218h477.081c13.925 0 25.218 11.293 25.218 25.218v7.731z" fill="#fff" stroke="#E1E4E5" stroke-width="4.518"/><path d="M188.545 173.721a5.083 5.083 0 1 0 0-10.167 5.083 5.083 0 0 0 0 10.167zm20.332 0a5.083 5.083 0 1 0 0-10.167 5.083 5.083 0 0 0 0 10.167zm20.897 0c3.119 0 5.648-2.276 5.648-5.083 0-2.807-2.529-5.083-5.648-5.083-3.119 0-5.648 2.276-5.648 5.083 0 2.807 2.529 5.083 5.648 5.083z" fill="#E1E4E5"/><path d="M763.558 434.617H286.477c-13.925 0-25.218-11.292-25.218-25.217V110.477c0-13.925 11.293-25.218 25.218-25.218h477.081c13.925 0 25.218 11.293 25.218 25.218V409.4c0 13.925-11.293 25.217-25.218 25.217z" fill="#fff" stroke="#E1E4E5" stroke-width="4.518"/><path d="m680.255 290.826-9.448 9.439-4.59-4.576m34.51-9.38h27.925m-27.708 13.854h46.18m-66.869 22.989-9.448 9.439-4.59-4.577m34.51-9.379h27.925m-27.708 13.854h46.18m-.001 32.325h-46.396m46.397-13.854h-46.18" stroke="#E1E4E5" stroke-width="5.5" stroke-linecap="round" stroke-linejoin="round"/><path clip-rule="evenodd" d="M673.236 369.432a9.236 9.236 0 1 0 0-18.472 9.237 9.237 0 0 0 0 18.472z" stroke="#E1E4E5" stroke-width="5.5" stroke-linecap="round" stroke-linejoin="round"/><path d="m680.255 180.826-9.448 9.439-4.59-4.576m34.51-9.38h27.925m-27.708 13.854h46.18m-66.869 22.989-9.448 9.439-4.59-4.577m34.51-9.379h27.925m-27.708 13.854h46.18m-.001 32.325h-46.396m46.397-13.854h-46.18" stroke="#E1E4E5" stroke-width="5.5" stroke-linecap="round" stroke-linejoin="round"/><path clip-rule="evenodd" d="M673.236 259.432a9.236 9.236 0 1 0 0-18.472 9.237 9.237 0 0 0 0 18.472z" stroke="#E1E4E5" stroke-width="5.5" stroke-linecap="round" stroke-linejoin="round"/><path fill-rule="evenodd" clip-rule="evenodd" d="M311 165a9 9 0 0 1 9-9h74a9 9 0 0 1 9 9 9 9 0 0 1-9 9h-74a9 9 0 0 1-9-9zm0 33a9 9 0 0 1 9-9h40a9 9 0 0 1 9 9 9 9 0 0 1-9 9h-40a9 9 0 0 1-9-9zm0 30a9 9 0 0 1 9-9h40a9 9 0 0 1 9 9 9 9 0 0 1-9 9h-40a9 9 0 0 1-9-9z" fill="#fff" stroke="#E1E4E5" stroke-width="4" stroke-linecap="round" stroke-linejoin="round"/><path d="M788.776 118.208H261.259v-7.731c0-13.925 11.293-25.218 25.218-25.218h477.081c13.925 0 25.218 11.293 25.218 25.218v7.731z" fill="#fff" stroke="#E1E4E5" stroke-width="4.518"/><path d="M285.545 106.721a5.083 5.083 0 1 0 0-10.167 5.083 5.083 0 0 0 0 10.167zm20.332 0a5.083 5.083 0 1 0 0-10.167 5.083 5.083 0 0 0 0 10.167zm20.897 0c3.119 0 5.648-2.276 5.648-5.083 0-2.807-2.529-5.083-5.648-5.083-3.119 0-5.648 2.276-5.648 5.083 0 2.807 2.529 5.083 5.648 5.083z" fill="#E1E4E5"/><path fill-rule="evenodd" clip-rule="evenodd" d="M234.698 370.62c-21.938-21.937-38.475-46.5-49.463-71.418-2.306-5.269-.956-11.438 3.113-15.507l15.356-15.356c12.581-12.581 12.581-30.375 1.594-41.362l-21.994-21.994c-14.644-14.644-38.381-14.644-53.025 0l-12.225 12.206c-13.894 13.894-19.688 33.938-15.938 53.813 9.263 48.993 37.725 102.637 83.644 148.556 45.919 45.919 99.563 74.381 148.556 83.644 19.875 3.75 39.919-2.044 53.813-15.938l12.206-12.206c14.644-14.644 14.644-38.381 0-53.025l-21.994-21.994c-10.987-10.987-28.8-10.987-39.768 0l-16.932 16.95c-4.068 4.069-10.237 5.438-15.506 3.113-24.919-11.007-49.5-27.563-71.437-49.482z" fill="#666AF6"/><path d="M300.38 327.933c-11.256-23.843-1.051-52.297 22.792-63.552 23.843-11.256 52.296-1.052 63.552 22.791s1.052 52.296-22.791 63.552c-23.844 11.256-52.297 1.052-63.553-22.791z" fill="#666AF6"/><path d="M352.801 345.535c1.655.038 2.687 1.809 1.905 3.267l-9.967 18.577c-.842 1.569-3.095 1.558-3.921-.019l-9.966-19.027c-.784-1.497.326-3.286 2.015-3.248l19.934.45z" fill="#666AF6"/><path d="M360.435 308.792a6.395 6.395 0 0 0 6.516 6.281 6.395 6.395 0 0 0 6.281-6.517 6.396 6.396 0 0 0-6.516-6.281 6.403 6.403 0 0 0-6.281 6.517zm-22.232.943c.36 3.513 3.513 6.07 7.026 5.71 3.513-.36 6.07-3.513 5.71-7.025-.36-3.513-3.513-6.07-7.026-5.71-3.513.372-6.07 3.512-5.71 7.025zm-20.904.385c.36 3.513 3.513 6.07 7.026 5.71 3.513-.36 6.07-3.513 5.71-7.026-.36-3.512-3.513-6.07-7.026-5.71a6.4 6.4 0 0 0-5.71 7.026z" fill="#fff"/><path fill-rule="evenodd" clip-rule="evenodd" d="M428 271.391c0 27.673 14.646 52.035 37.121 67.393-.011 8.818.01 20.7.01 33.17l36.419-18.019a102.027 102.027 0 0 0 19.278 1.846c51.076 0 92.827-37.574 92.827-84.39S571.904 187 520.828 187 428 224.575 428 271.391z" fill="#666AF6" stroke="#666AF6" stroke-width="12.5" stroke-linecap="round" stroke-linejoin="round"/><path fill-rule="evenodd" clip-rule="evenodd" d="m513.744 244.883 32.953 19.494c4.745 2.806 4.745 9.675 0 12.491l-32.953 19.493c-4.838 2.857-10.944-.629-10.944-6.24v-38.987c0-5.632 6.106-9.118 10.944-6.251z" fill="#fff"/><path fill-rule="evenodd" clip-rule="evenodd" d="M725.442 477.42h3.304c.799 0 1.442.65 1.442 1.442v3.304c0 .799-.65 1.442-1.442 1.442h-3.304c-.792 0-1.442-.65-1.442-1.442v-3.304a1.439 1.439 0 0 1 1.442-1.442zm11.455 0h3.304c.793 0 1.443.65 1.443 1.442v3.304c0 .799-.65 1.442-1.443 1.442h-3.304c-.792 0-1.442-.65-1.442-1.442v-3.304c0-.792.65-1.442 1.442-1.442zm11.463 0h3.305c.792 0 1.442.65 1.442 1.442v3.304c0 .799-.65 1.442-1.442 1.442h-3.305c-.792 0-1.442-.65-1.442-1.442v-3.304a1.44 1.44 0 0 1 1.442-1.442zm11.456 0h3.304c.792 0 1.442.65 1.442 1.442v3.304c0 .799-.65 1.442-1.442 1.442h-3.304a1.45 1.45 0 0 1-1.449-1.442v-3.304a1.458 1.458 0 0 1 1.449-1.442zm11.456 0h3.304c.799 0 1.449.65 1.449 1.442v3.304c0 .799-.65 1.442-1.449 1.442h-3.304c-.792 0-1.442-.65-1.442-1.442v-3.304c0-.792.65-1.442 1.442-1.442zm-33.955 12.492h3.305c.792 0 1.442.649 1.442 1.442v3.311c0 .792-.65 1.442-1.442 1.442h-3.305c-.798 0-1.442-.65-1.442-1.442v-3.305a1.44 1.44 0 0 1 1.442-1.448zm11.456 0h3.304c.792 0 1.442.649 1.442 1.442v3.311c0 .792-.65 1.442-1.442 1.442h-3.304c-.792 0-1.442-.65-1.442-1.442v-3.305a1.44 1.44 0 0 1 1.442-1.448zm11.456 0h3.304c.799 0 1.449.649 1.449 1.442v3.311a1.45 1.45 0 0 1-1.449 1.442h-3.304c-.792 0-1.442-.65-1.442-1.442v-3.305c0-.799.65-1.448 1.442-1.448zM748.36 464h3.305c.792 0 1.442.65 1.442 1.442v3.304c0 .799-.65 1.442-1.442 1.442h-3.305c-.792 0-1.442-.65-1.442-1.442v-3.304A1.44 1.44 0 0 1 748.36 464zm11.456 0h3.304c.792 0 1.442.65 1.442 1.442v3.304c0 .799-.65 1.442-1.442 1.442h-3.304a1.45 1.45 0 0 1-1.449-1.442v-3.304a1.458 1.458 0 0 1 1.449-1.442zM84.442 163.42h3.304c.8 0 1.443.65 1.443 1.442v3.304c0 .799-.65 1.442-1.443 1.442h-3.304c-.792 0-1.442-.65-1.442-1.442v-3.304a1.439 1.439 0 0 1 1.442-1.442zm11.456 0h3.304c.792 0 1.442.65 1.442 1.442v3.304c0 .799-.65 1.442-1.442 1.442h-3.304c-.792 0-1.442-.65-1.442-1.442v-3.304c0-.792.65-1.442 1.442-1.442zm11.463 0h3.304c.792 0 1.442.65 1.442 1.442v3.304c0 .799-.65 1.442-1.442 1.442h-3.304c-.792 0-1.442-.65-1.442-1.442v-3.304a1.439 1.439 0 0 1 1.442-1.442zm11.455 0h3.304c.793 0 1.443.65 1.443 1.442v3.304c0 .799-.65 1.442-1.443 1.442h-3.304a1.45 1.45 0 0 1-1.449-1.442v-3.304a1.458 1.458 0 0 1 1.449-1.442zm11.457 0h3.304c.799 0 1.449.65 1.449 1.442v3.304c0 .799-.65 1.442-1.449 1.442h-3.304c-.792 0-1.442-.65-1.442-1.442v-3.304c0-.792.65-1.442 1.442-1.442zm-33.955 12.492h3.304c.792 0 1.442.649 1.442 1.442v3.311c0 .792-.65 1.442-1.442 1.442h-3.304c-.799 0-1.442-.65-1.442-1.442v-3.305a1.44 1.44 0 0 1 1.442-1.448zm11.455 0h3.304c.793 0 1.443.649 1.443 1.442v3.311c0 .792-.65 1.442-1.443 1.442h-3.304c-.792 0-1.442-.65-1.442-1.442v-3.305a1.44 1.44 0 0 1 1.442-1.448zm11.457 0h3.304c.799 0 1.449.649 1.449 1.442v3.311a1.45 1.45 0 0 1-1.449 1.442h-3.304c-.792 0-1.442-.65-1.442-1.442v-3.305c0-.799.65-1.448 1.442-1.448zM107.361 150h3.304c.792 0 1.442.65 1.442 1.442v3.304c0 .799-.65 1.442-1.442 1.442h-3.304c-.792 0-1.442-.65-1.442-1.442v-3.304a1.439 1.439 0 0 1 1.442-1.442zm11.455 0h3.304c.793 0 1.443.65 1.443 1.442v3.304c0 .799-.65 1.442-1.443 1.442h-3.304a1.45 1.45 0 0 1-1.449-1.442v-3.304a1.458 1.458 0 0 1 1.449-1.442z" fill="#E1E4E5"/><path d="M544.84 470.726c-5.685 3.913-14.367 1.175-14.367 1.175s.539-9.083 6.228-12.993c5.684-3.913 14.363-1.179 14.363-1.179s-.54 9.083-6.224 12.997z" fill="url(#a)"/><path d="M755.594 407.759c6.445-4.413 7.082-14.698 7.082-14.698s-9.814-3.122-16.256 1.297c-6.444 4.414-7.084 14.693-7.084 14.693s9.814 3.122 16.258-1.292z" fill="url(#b)"/><path d="M101.442 421.089c10.323 10.506 29.626 8.291 29.626 8.291s2.554-19.25-7.778-29.749c-10.323-10.507-29.616-8.298-29.616-8.298s-2.555 19.25 7.768 29.756z" fill="url(#c)"/><circle r="16.215" transform="matrix(-1 0 0 1 181.359 232.834)" fill="#666AF6"/><circle r="8.765" transform="matrix(-1 0 0 1 118.318 470.363)" fill="#fff"/><circle r="7.03" transform="matrix(-1 0 0 1 411.031 362.03)" fill="#E1E4E5"/><circle r="4.5" transform="matrix(-1 0 0 1 729.5 102.5)" fill="#E1E4E5"/><circle r="4.5" transform="matrix(-1 0 0 1 446.5 476.5)" fill="#E1E4E5"/><circle r="4.5" transform="matrix(-1 0 0 1 649.5 464.5)" fill="#E1E4E5"/><circle r="7.019" transform="scale(1 -1) rotate(-75 -235.345 -284.734)" fill="#fff"/><circle r="9.337" transform="matrix(-1 0 0 1 451.337 155.337)" fill="#E1E4E5"/><ellipse rx="7.183" ry="5.746" transform="matrix(-1 0 0 1 198.183 475.746)" fill="#E1E4E5"/><ellipse rx="11.691" ry="9.229" transform="scale(-1 1) rotate(26.006 -1491.198 -1484.656)" fill="#E1E4E5"/><circle transform="matrix(0 1 1 0 604.312 154.5)" fill="#E1E4E5" r="7.5"/><path d="M609.832 380h.188c1.113 15.765 12.837 16.008 12.837 16.008s-12.928.252-12.928 18.469c0-18.217-12.929-18.469-12.929-18.469s11.72-.243 12.832-16.008zm-72-247h.188c1.113 15.765 12.837 16.008 12.837 16.008s-12.928.252-12.928 18.469c0-18.217-12.929-18.469-12.929-18.469s11.72-.243 12.832-16.008zM218.254 94h.135c.803 11.536 9.257 11.714 9.257 11.714s-9.323.184-9.323 13.514c0-13.33-9.323-13.514-9.323-13.514s8.451-.178 9.254-11.714zm0 201h.135c.803 11.536 9.257 11.714 9.257 11.714s-9.323.184-9.323 13.514c0-13.33-9.323-13.514-9.323-13.514s8.451-.178 9.254-11.714z" fill="#E1E4E5"/><defs><linearGradient id="a" x1="522.697" y1="483.566" x2="567.448" y2="436.398" gradientUnits="userSpaceOnUse"><stop stop-color="#fff"/><stop offset="1" stop-color="#EEE"/></linearGradient><linearGradient id="b" x1="778.158" y1="389.59" x2="710.145" y2="417.685" gradientUnits="userSpaceOnUse"><stop stop-color="#fff"/><stop offset="1" stop-color="#EEE"/></linearGradient><linearGradient id="c" x1="142.627" y1="456.976" x2="68.001" y2="339.993" gradientUnits="userSpaceOnUse"><stop stop-color="#fff"/><stop offset="1" stop-color="#EEE"/></linearGradient></defs></svg>